<svg width="12" height="8" viewBox="0 0 12 8" fill="none" xmlns="http://www.w3.org/2000/svg">
<path d="M2.11967 1.28995L5.99967 5.16995L9.87967 1.28995C9.97225 1.19736 10.0822 1.12392 10.2031 1.07382C10.3241 1.02371 10.4537 0.997925 10.5847 0.997925C10.7156 0.997925 10.8452 1.02371 10.9662 1.07382C11.0872 1.12392 11.1971 1.19736 11.2897 1.28995C11.3823 1.38253 11.4557 1.49244 11.5058 1.6134C11.5559 1.73437 11.5817 1.86401 11.5817 1.99495C11.5817 2.12588 11.5559 2.25552 11.5058 2.37649C11.4557 2.49745 11.3823 2.60736 11.2897 2.69995L6.69967 7.28995C6.60716 7.38265 6.49727 7.4562 6.37629 7.50638C6.25532 7.55656 6.12564 7.58239 5.99467 7.58239C5.8637 7.58239 5.73402 7.55656 5.61305 7.50638C5.49207 7.4562 5.38218 7.38265 5.28967 7.28995L0.69967 2.69995C0.606967 2.60743 0.533419 2.49754 0.483238 2.37657C0.433056 2.2556 0.407227 2.12591 0.407227 1.99495C0.407227 1.86398 0.433056 1.73429 0.483238 1.61332C0.533419 1.49235 0.606967 1.38246 0.69967 1.28995C1.08967 0.909946 1.72967 0.899946 2.11967 1.28995Z" fill="#1E1E1E"/>
</svg>
